<svg id="Behance Icon" data-name="Behance Icon" xmlns="http://www.w3.org/2000/svg" viewBox="0 0 50 50"><path d="M26.44,30.14a1.32,1.32,0,0,0,1.27-.95,4.36,4.36,0,0,0,.17-2.29,1.61,1.61,0,0,0-1.8-1.45H20.34v4.7C22.39,30.15,24.42,30.17,26.44,30.14Z" transform="translate(-7.5 -7.5)" /><path d="M43.68,30.47a3.83,3.83,0,0,0-2.5-.18,3.66,3.66,0,0,0-2.66,3.11H45.4A3.21,3.21,0,0,0,43.68,30.47Z" transform="translate(-7.5 -7.5)" /><path d="M32.5,7.5a25,25,0,1,0,25,25A25,25,0,0,0,32.5,7.5ZM37.57,23h8.67v2.55H37.57ZM32.83,38.79a5.38,5.38,0,0,1-3.72,3.58,8.07,8.07,0,0,1-2.67.43H15.81l-.31,0v-21l.32,0H26.38a6.75,6.75,0,0,1,3.62.9,4.87,4.87,0,0,1,2.35,3.66,5.6,5.6,0,0,1-.09,2.41,3.56,3.56,0,0,1-2.8,2.65,4,4,0,0,1,1.81.58,3.73,3.73,0,0,1,1.49,2A7.84,7.84,0,0,1,32.83,38.79ZM49.5,35.93c0,.1-.06.19-.09.31H38.56A3.21,3.21,0,0,0,41,39.76a5.23,5.23,0,0,0,3-.14,2.17,2.17,0,0,0,1.57-1.8c0-.07.13-.17.2-.17h3.5a5.07,5.07,0,0,1-.32,2,4.87,4.87,0,0,1-3,2.91,10.59,10.59,0,0,1-7.81-.12,6.33,6.33,0,0,1-3.68-4.21,9.29,9.29,0,0,1,.94-7.79,6.59,6.59,0,0,1,4.48-3.16,9.47,9.47,0,0,1,5.4.3A5.94,5.94,0,0,1,48.7,31a9.59,9.59,0,0,1,.74,3,2.44,2.44,0,0,0,.06.26Z" transform="translate(-7.5 -7.5)" /><path d="M26.16,33.41H20.35v5.64c2,0,4,0,6,0a2.12,2.12,0,0,0,2.22-2,5.57,5.57,0,0,0,0-1.68A2.23,2.23,0,0,0,26.16,33.41Z" transform="translate(-7.5 -7.5)" /></svg>