<svg id="Github Icon" data-name="Github Icon" xmlns="http://www.w3.org/2000/svg" viewBox="0 0 50 50"><path d="M57.46,34.64A25.74,25.74,0,0,1,41.3,57.17c-1.93.72-2.47.32-2.47-1.83,0-1.67,0-3.35,0-5a8.63,8.63,0,0,0-1.5-5.76c1.36-.34,2.65-.61,3.9-1,4.28-1.37,6.46-4.53,7.08-9,.46-3.38.16-6.57-2-9.35-.21-.27-.07-.82-.09-1.24-.07-1.65-.11-3.3-.21-4.95a1.05,1.05,0,0,0-1.57-1c-1.64.64-3.23,1.44-4.86,2.11a2.93,2.93,0,0,1-1.6.26,24.78,24.78,0,0,0-10.84,0,2.82,2.82,0,0,1-1.59-.29c-1.54-.64-3-1.41-4.58-2-1-.39-1.78-.1-1.87,1.14-.11,1.55-.1,3.11-.2,4.66a3.7,3.7,0,0,1-.35,1.76c-4.72,6.92-1.07,16.6,7,18.42.72.16,1.44.28,2.12.41a31.18,31.18,0,0,1-1.17,2.92,2,2,0,0,1-1.06.86c-2.45.81-4.49,0-6.06-2.18a10.79,10.79,0,0,0-2.63-2.55,5.8,5.8,0,0,0-2.31-.43l-.21.45c.32.38.65.75,1,1.13A19,19,0,0,1,17.67,48c1.61,3.27,3.69,4.58,7.22,4.18.43-.05.86-.08,1.49-.12,0,1.32,0,2.52,0,3.73,0,1.62-.66,2.08-2.18,1.52a23.46,23.46,0,0,1-11.65-8.92C6.59,39.58,5.8,30.22,10.76,20.85S23.59,7.06,33.86,7.53C47.79,8.18,58.19,20.27,57.46,34.64Z" transform="translate(-7.5 -7.5)" style="fill:#0742f2"/></svg>