<svg id="ac3c19d9-9152-4446-9b7a-1b09822dbaf9" data-name="Calque 1" xmlns="http://www.w3.org/2000/svg" viewBox="0 0 60.81 60.78"><defs></defs><path class="a6e928c4-00d5-4138-ba8b-ae44553e181d" d="M51,33.15a2.42,2.42,0,0,0-2.42,2.42V52.8a5.29,5.29,0,0,1-5.28,5.28H12.19A5.29,5.29,0,0,1,6.92,52.8V21.65a5.28,5.28,0,0,1,5.27-5.27H29.28a2.42,2.42,0,0,0,0-4.84H12.19A10.13,10.13,0,0,0,2.08,21.65V52.8A10.13,10.13,0,0,0,12.19,62.92H43.34A10.13,10.13,0,0,0,53.46,52.8V35.57A2.42,2.42,0,0,0,51,33.15Z" transform="translate(-2.08 -2.14)"/><path class="a6e928c4-00d5-4138-ba8b-ae44553e181d" d="M62.83,4.58a2.41,2.41,0,0,0-2.42-2.44l-18.68,0c-3.16,0-3.16,4.83,0,4.84L54.51,7,24.94,36.18a2.42,2.42,0,0,0,3.4,3.45L58,10.32l0,12.92a2.43,2.43,0,0,0,4.85,0l0-18.37A2.65,2.65,0,0,0,62.83,4.58Z" transform="translate(-2.08 -2.14)"/></svg>