<svg id="e6f210c8-32c4-4186-9afa-f4af6a9a162e" data-name="Calque 1" xmlns="http://www.w3.org/2000/svg" viewBox="0 0 57.86 57.86"><defs></defs><path class="aca54901-8595-4362-91f0-2f0ef6ab92de" d="M47.72,31.18,21,31l5.86-5.84A1.55,1.55,0,1,0,24.65,23l-8.34,8.31a1.53,1.53,0,0,0-.11.16,1.54,1.54,0,0,0,0,2.2l8.49,8.45a1.55,1.55,0,0,0,2.19-2.2l-5.8-5.77,26.63.17a1.55,1.55,0,0,0,0-3.1Z" transform="translate(-3.57 -3.6)"/><path class="aca54901-8595-4362-91f0-2f0ef6ab92de" d="M32.5,3.6A28.93,28.93,0,1,0,61.42,32.53,29,29,0,0,0,32.5,3.6Zm0,55.86A26.93,26.93,0,1,1,59.42,32.53,27,27,0,0,1,32.5,59.46Z" transform="translate(-3.57 -3.6)"/></svg>