<svg id="Instagram icon" data-name="Instagram icon" xmlns="http://www.w3.org/2000/svg" viewBox="0 0 50 50"><path d="M32.5,7.5a25,25,0,1,0,25,25A25,25,0,0,0,32.5,7.5Zm8.3,41.91a10.52,10.52,0,0,1-1.59.08c-4.48,0-9,0-13.45,0a10.09,10.09,0,0,1-10-8,12.64,12.64,0,0,1-.2-2.22q0-6.78,0-13.56a10,10,0,0,1,8.67-10.13,14.91,14.91,0,0,1,2.12-.09h6.24c2.26,0,4.52,0,6.78,0a10,10,0,0,1,10,8,10.59,10.59,0,0,1,.19,2.18c0,4.53,0,9.08,0,13.61A10,10,0,0,1,40.8,49.41Z" transform="translate(-7.5 -7.5)" style="fill:#0742f2"/><path d="M32.48,26.32a6.18,6.18,0,1,0,6.19,6.17A6.15,6.15,0,0,0,32.48,26.32Z" transform="translate(-7.5 -7.5)" style="fill:#0742f2"/><path d="M39.35,18.59H32.51c-2.32,0-4.64,0-6.95,0a6.86,6.86,0,0,0-7,7q0,6.91,0,13.84a6.86,6.86,0,0,0,7,7H39.39a6.86,6.86,0,0,0,7-7q0-6.87,0-13.73A6.86,6.86,0,0,0,39.35,18.59ZM32.43,41.78a9.28,9.28,0,1,1,9.35-9.24A9.34,9.34,0,0,1,32.43,41.78Zm9.2-17a1.39,1.39,0,1,1,0-2.77,1.39,1.39,0,0,1,0,2.77Z" transform="translate(-7.5 -7.5)" /></svg>